<svg width="341" height="100" viewBox="0 0 341 100" fill="none" xmlns="http://www.w3.org/2000/svg">
<circle cx="50" cy="50" r="50" fill="#33363F"/>
<circle cx="72" cy="50" r="50" fill="#F6F7F9" fill-opacity="0.32"/>
<path d="M158.341 25.7045C158.265 24.8712 157.928 24.2235 157.33 23.7614C156.739 23.2917 155.894 23.0568 154.795 23.0568C154.068 23.0568 153.462 23.1515 152.977 23.3409C152.492 23.5303 152.129 23.7917 151.886 24.125C151.644 24.4508 151.519 24.8258 151.511 25.25C151.496 25.5985 151.564 25.9053 151.716 26.1705C151.875 26.4356 152.102 26.6705 152.398 26.875C152.701 27.072 153.064 27.2462 153.489 27.3977C153.913 27.5492 154.39 27.6818 154.92 27.7955L156.92 28.25C158.072 28.5 159.087 28.8333 159.966 29.25C160.852 29.6667 161.595 30.1629 162.193 30.7386C162.799 31.3144 163.258 31.9773 163.568 32.7273C163.879 33.4773 164.038 34.3182 164.045 35.25C164.038 36.7197 163.667 37.9811 162.932 39.0341C162.197 40.0871 161.14 40.8939 159.761 41.4545C158.39 42.0152 156.735 42.2955 154.795 42.2955C152.848 42.2955 151.152 42.0038 149.705 41.4205C148.258 40.8371 147.133 39.9508 146.33 38.7614C145.527 37.572 145.114 36.0682 145.091 34.25H150.477C150.523 35 150.723 35.625 151.08 36.125C151.436 36.625 151.924 37.0038 152.545 37.2614C153.174 37.5189 153.902 37.6477 154.727 37.6477C155.485 37.6477 156.129 37.5455 156.659 37.3409C157.197 37.1364 157.61 36.8523 157.898 36.4886C158.186 36.125 158.333 35.7083 158.341 35.2386C158.333 34.7992 158.197 34.4242 157.932 34.1136C157.667 33.7955 157.258 33.5227 156.705 33.2955C156.159 33.0606 155.462 32.8447 154.614 32.6477L152.182 32.0795C150.167 31.6174 148.58 30.8712 147.42 29.8409C146.261 28.803 145.686 27.4015 145.693 25.6364C145.686 24.197 146.072 22.9356 146.852 21.8523C147.633 20.7689 148.712 19.9242 150.091 19.3182C151.47 18.7121 153.042 18.4091 154.807 18.4091C156.61 18.4091 158.174 18.7159 159.5 19.3295C160.833 19.9356 161.867 20.7879 162.602 21.8864C163.337 22.9848 163.712 24.2576 163.727 25.7045H158.341ZM166.125 23.2955V18.7273H185.795V23.2955H178.739V42H173.193V23.2955H166.125ZM209.446 30.3636C209.446 32.9242 208.954 35.0947 207.969 36.875C206.984 38.6553 205.651 40.0076 203.969 40.9318C202.295 41.8561 200.416 42.3182 198.332 42.3182C196.241 42.3182 194.359 41.8523 192.685 40.9205C191.01 39.9886 189.681 38.6364 188.696 36.8636C187.719 35.0833 187.23 32.9167 187.23 30.3636C187.23 27.803 187.719 25.6326 188.696 23.8523C189.681 22.072 191.01 20.7197 192.685 19.7955C194.359 18.8712 196.241 18.4091 198.332 18.4091C200.416 18.4091 202.295 18.8712 203.969 19.7955C205.651 20.7197 206.984 22.072 207.969 23.8523C208.954 25.6326 209.446 27.803 209.446 30.3636ZM203.696 30.3636C203.696 28.8485 203.48 27.5682 203.048 26.5227C202.624 25.4773 202.01 24.6856 201.207 24.1477C200.412 23.6098 199.454 23.3409 198.332 23.3409C197.219 23.3409 196.26 23.6098 195.457 24.1477C194.654 24.6856 194.037 25.4773 193.605 26.5227C193.181 27.5682 192.969 28.8485 192.969 30.3636C192.969 31.8788 193.181 33.1591 193.605 34.2045C194.037 35.25 194.654 36.0417 195.457 36.5795C196.26 37.1174 197.219 37.3864 198.332 37.3864C199.454 37.3864 200.412 37.1174 201.207 36.5795C202.01 36.0417 202.624 35.25 203.048 34.2045C203.48 33.1591 203.696 31.8788 203.696 30.3636ZM233.855 27.1591H228.173C228.098 26.5758 227.942 26.0492 227.707 25.5795C227.473 25.1098 227.162 24.7083 226.776 24.375C226.389 24.0417 225.931 23.7879 225.401 23.6136C224.878 23.4318 224.298 23.3409 223.662 23.3409C222.533 23.3409 221.56 23.6174 220.741 24.1705C219.931 24.7235 219.306 25.5227 218.866 26.5682C218.435 27.6136 218.219 28.8788 218.219 30.3636C218.219 31.9091 218.438 33.2045 218.878 34.25C219.325 35.2879 219.95 36.072 220.753 36.6023C221.563 37.125 222.522 37.3864 223.628 37.3864C224.249 37.3864 224.813 37.3068 225.321 37.1477C225.836 36.9886 226.287 36.7576 226.673 36.4545C227.067 36.1439 227.389 35.7689 227.639 35.3295C227.897 34.8826 228.075 34.3788 228.173 33.8182L233.855 33.8523C233.757 34.8826 233.457 35.8977 232.957 36.8977C232.465 37.8977 231.787 38.8106 230.923 39.6364C230.06 40.4545 229.007 41.1061 227.764 41.5909C226.529 42.0758 225.113 42.3182 223.514 42.3182C221.408 42.3182 219.522 41.8561 217.855 40.9318C216.196 40 214.885 38.6439 213.923 36.8636C212.961 35.0833 212.48 32.9167 212.48 30.3636C212.48 27.803 212.969 25.6326 213.946 23.8523C214.923 22.072 216.245 20.7197 217.912 19.7955C219.579 18.8712 221.446 18.4091 223.514 18.4091C224.923 18.4091 226.226 18.6061 227.423 19C228.62 19.3864 229.673 19.9545 230.582 20.7045C231.491 21.447 232.23 22.3598 232.798 23.4432C233.366 24.5265 233.719 25.7652 233.855 27.1591ZM237.074 42V18.7273H242.699V28.5682H243.006L250.699 18.7273H257.324L249.074 29.1136L257.472 42H250.744L244.949 32.8523L242.699 35.6932V42H237.074ZM145 62.2955V57.7273H164.67V62.2955H157.614V81H152.068V62.2955H145ZM169.545 81H163.5L171.352 57.7273H178.841L186.693 81H180.648L175.182 63.5909H175L169.545 81ZM168.739 71.8409H181.375V76.1136H168.739V71.8409ZM189.199 81V57.7273H194.824V67.5682H195.131L202.824 57.7273H209.449L201.199 68.1136L209.597 81H202.869L197.074 71.8523L194.824 74.6932V81H189.199ZM217.293 57.7273V81H211.668V57.7273H217.293ZM240.631 57.7273V81H235.858L226.597 67.5682H226.449V81H220.824V57.7273H225.665L234.824 71.1364H235.017V57.7273H240.631ZM259.44 65.3295C259.312 64.8523 259.122 64.4318 258.872 64.0682C258.622 63.697 258.315 63.3826 257.952 63.125C257.588 62.8674 257.171 62.6742 256.702 62.5455C256.232 62.4091 255.717 62.3409 255.156 62.3409C254.027 62.3409 253.05 62.6136 252.224 63.1591C251.406 63.7045 250.774 64.5 250.327 65.5455C249.88 66.5833 249.656 67.8447 249.656 69.3295C249.656 70.822 249.872 72.0947 250.304 73.1477C250.736 74.2008 251.361 75.0038 252.179 75.5568C252.997 76.1098 253.99 76.3864 255.156 76.3864C256.187 76.3864 257.058 76.2197 257.77 75.8864C258.49 75.5455 259.035 75.0644 259.406 74.4432C259.777 73.822 259.963 73.0909 259.963 72.25L261.009 72.375H255.349V68.2727H265.384V71.3523C265.384 73.4356 264.94 75.2197 264.054 76.7045C263.175 78.1894 261.963 79.3295 260.418 80.125C258.88 80.9205 257.111 81.3182 255.111 81.3182C252.891 81.3182 250.94 80.8371 249.259 79.875C247.577 78.9129 246.266 77.5417 245.327 75.7614C244.387 73.9735 243.918 71.8523 243.918 69.3977C243.918 67.4886 244.202 65.7955 244.77 64.3182C245.338 62.8333 246.13 61.5758 247.145 60.5455C248.168 59.5152 249.349 58.7348 250.69 58.2045C252.039 57.6742 253.49 57.4091 255.043 57.4091C256.391 57.4091 257.645 57.6023 258.804 57.9886C259.971 58.375 261.001 58.9205 261.895 59.625C262.796 60.3295 263.527 61.1667 264.088 62.1364C264.649 63.1061 264.997 64.1705 265.134 65.3295H259.44ZM280.608 81H274.562L282.415 57.7273H289.903L297.756 81H291.71L286.244 63.5909H286.062L280.608 81ZM279.801 71.8409H292.438V76.1136H279.801V71.8409ZM300.261 81V57.7273H309.875C311.617 57.7273 313.121 58.0682 314.386 58.75C315.659 59.4242 316.64 60.3674 317.33 61.5795C318.019 62.7841 318.364 64.1856 318.364 65.7841C318.364 67.3902 318.011 68.7955 317.307 70C316.61 71.197 315.614 72.125 314.318 72.7841C313.023 73.4432 311.485 73.7727 309.705 73.7727H303.773V69.3409H308.659C309.508 69.3409 310.216 69.1932 310.784 68.8977C311.36 68.6023 311.795 68.1894 312.091 67.6591C312.386 67.1212 312.534 66.4962 312.534 65.7841C312.534 65.0644 312.386 64.4432 312.091 63.9205C311.795 63.3902 311.36 62.9811 310.784 62.6932C310.208 62.4053 309.5 62.2614 308.659 62.2614H305.886V81H300.261ZM321.136 81V57.7273H330.75C332.492 57.7273 333.996 58.0682 335.261 58.75C336.534 59.4242 337.515 60.3674 338.205 61.5795C338.894 62.7841 339.239 64.1856 339.239 65.7841C339.239 67.3902 338.886 68.7955 338.182 70C337.485 71.197 336.489 72.125 335.193 72.7841C333.898 73.4432 332.36 73.7727 330.58 73.7727H324.648V69.3409H329.534C330.383 69.3409 331.091 69.1932 331.659 68.8977C332.235 68.6023 332.67 68.1894 332.966 67.6591C333.261 67.1212 333.409 66.4962 333.409 65.7841C333.409 65.0644 333.261 64.4432 332.966 63.9205C332.67 63.3902 332.235 62.9811 331.659 62.6932C331.083 62.4053 330.375 62.2614 329.534 62.2614H326.761V81H321.136Z" fill="white"/>
<rect width="30.3326" height="17.849" transform="matrix(0.955759 -0.294151 0.30763 0.951506 53.2627 34.7572)" fill="#4EA652"/>
<rect width="44.6815" height="18.3555" transform="matrix(0.955759 -0.294151 0.30763 0.951506 59.373 55.5546)" fill="#4EA652"/>
<rect x="22" y="15.9071" width="17.0323" height="4.54302" fill="black"/>
<rect width="37.3299" height="4.55308" transform="matrix(0.957125 -0.289676 0.30299 0.952994 70.8911 76.6618)" fill="black"/>
<path d="M42.4657 15.9065L58.0272 69.5827L53.7915 70.7408L39.0325 20.4501L39.0331 15.9069L42.4657 15.9065Z" fill="black"/>
<ellipse cx="57.6576" cy="83.0362" rx="10.4154" ry="10.2218" fill="black"/>
<ellipse cx="57.6572" cy="83.096" rx="7.35207" ry="7.17319" fill="#D9D9D9"/>
</svg>
